<?xml version="1.0" encoding="UTF-8"?>
<svg xmlns="http://www.w3.org/2000/svg" viewBox="0 0 2310 2400" width="201" height="200" preserveAspectRatio="xMidYMid meet">
  <g transform="translate(0,2400) scale(0.1,-0.1)">
    <path d="M6206 18984 c-38 -37 -30 -99 78 -623 51 -248 72 -326 101 -393 21
-46 52 -130 69 -188 35 -113 52 -151 99 -219 17 -24 45 -83 64 -130 18 -46 51
-112 72 -145 21 -34 58 -95 81 -136 23 -41 59 -97 80 -125 20 -27 50 -70 65
-95 263 -426 989 -1039 1367 -1154 133 -40 182 -103 125 -160 -54 -54 -137
-57 -501 -21 -244 25 -311 36 -541 89 -223 51 -338 55 -408 13 -345 -208
-1223 -1148 -1397 -1497 -18 -36 -52 -93 -76 -126 -24 -34 -54 -84 -65 -110
-12 -27 -44 -84 -71 -126 -27 -43 -65 -114 -83 -159 -19 -45 -52 -112 -74
-148 -22 -36 -53 -111 -70 -166 -18 -59 -52 -137 -82 -190 -100 -172 -52 -294
83 -212 20 12 56 34 80 49 25 16 91 39 149 54 57 14 134 39 171 55 207 91 269
-78 118 -321 -22 -36 -52 -103 -66 -150 -14 -47 -48 -134 -76 -193 -31 -69
-59 -149 -74 -219 -24 -107 -39 -151 -102 -308 -17 -41 -40 -131 -52 -200 -14
-79 -39 -169 -67 -245 -52 -142 -66 -202 -88 -394 -9 -79 -29 -194 -46 -255
-90 -337 -96 -401 -105 -1031 -10 -783 7 -1079 76 -1323 50 -177 65 -255 85
-432 40 -353 166 -396 250 -86 15 55 47 140 72 189 24 50 54 126 65 171 32
130 68 179 133 179 73 -1 82 -39 89 -400 8 -387 17 -469 67 -613 21 -63 52
-176 68 -251 24 -109 40 -156 81 -238 28 -56 60 -125 71 -154 11 -29 39 -79
62 -112 22 -33 57 -96 78 -140 82 -177 383 -538 594 -713 44 -37 111 -94 150
-127 38 -33 106 -91 150 -130 170 -146 281 -229 450 -334 44 -27 107 -70 141
-94 34 -25 98 -64 142 -86 44 -22 108 -58 141 -80 33 -21 89 -50 125 -64 35
-15 98 -48 140 -76 42 -27 106 -59 144 -71 37 -12 105 -44 152 -70 53 -30 126
-60 193 -79 59 -17 147 -51 196 -75 49 -25 131 -57 182 -72 52 -14 148 -49
213 -76 83 -35 160 -59 255 -78 85 -17 180 -45 255 -75 66 -26 151 -53 190
-60 39 -7 111 -21 161 -30 49 -9 135 -33 191 -55 118 -44 208 -66 314 -75 200
-17 342 -39 575 -90 305 -66 881 -64 1192 5 175 39 290 57 453 70 178 15 243
29 382 84 64 25 174 59 245 75 97 22 155 42 229 79 54 27 129 59 166 71 37 12
103 44 147 71 44 27 113 61 153 75 40 14 96 40 123 57 28 17 86 52 130 77 45
25 118 73 163 106 328 239 324 236 690 589 121 118 330 362 454 531 32 44 78
106 101 137 147 201 302 437 348 533 21 44 56 108 77 142 21 34 51 96 66 138
15 43 47 109 72 149 25 39 56 109 70 156 15 47 53 142 85 211 150 323 104 573
-51 277 -39 -74 -119 -206 -205 -338 -34 -52 -70 -109 -79 -127 -9 -18 -38
-58 -65 -90 -26 -33 -68 -88 -93 -123 -144 -211 -425 -499 -812 -835 -151
-132 -443 -352 -550 -417 -39 -22 -99 -63 -135 -89 -37 -26 -95 -59 -131 -73
-36 -15 -90 -42 -120 -60 -77 -47 -126 -70 -190 -91 -30 -9 -96 -40 -147 -67
-73 -39 -119 -55 -222 -78 -72 -16 -181 -50 -243 -74 -125 -49 -188 -61 -388
-76 -74 -6 -198 -21 -275 -33 -181 -28 -615 -30 -785 -3 -58 9 -170 26 -250
37 -165 23 -222 36 -370 84 -58 19 -161 46 -230 60 -98 20 -150 37 -240 79
-63 30 -151 64 -195 76 -48 13 -118 42 -175 75 -52 30 -119 63 -149 75 -30 11
-86 43 -125 70 -39 27 -98 61 -131 76 -65 29 -257 161 -333 229 -26 23 -78 66
-117 97 -202 160 -541 543 -622 702 -14 28 -49 85 -76 126 -28 41 -68 118 -88
170 -21 52 -54 125 -73 161 -20 36 -47 110 -62 165 -14 54 -47 167 -74 249
-58 178 -76 291 -90 555 -6 107 -15 259 -20 338 -24 350 34 947 115 1187 24
72 55 176 69 232 16 69 39 130 70 186 25 46 59 116 75 155 71 171 300 457 473
591 51 39 143 109 203 156 162 127 208 143 260 90 46 -45 39 -70 -78 -285 -48
-89 -54 -114 -77 -322 -26 -247 38 -316 151 -160 60 82 124 147 199 200 36 26
94 68 129 95 35 26 91 62 125 79 33 16 93 50 132 74 39 25 116 60 170 78 55
19 134 54 176 79 47 27 116 55 174 71 54 15 145 47 203 71 103 42 196 66 311
80 30 4 111 20 180 35 215 50 647 96 795 85 261 -19 699 -128 824 -205 26 -16
92 -44 146 -62 64 -20 120 -47 159 -74 34 -24 95 -61 136 -84 41 -23 98 -59
125 -80 28 -21 75 -53 105 -71 51 -31 177 -130 383 -302 45 -37 118 -95 162
-129 99 -76 319 -291 474 -462 232 -258 375 -423 442 -511 38 -49 109 -142
159 -205 50 -63 111 -149 137 -190 26 -41 64 -98 84 -125 20 -28 51 -76 69
-108 70 -125 209 -127 400 -7 36 22 107 61 158 85 51 25 112 58 135 74 23 15
76 45 117 66 41 20 109 61 150 90 41 30 103 73 137 97 401 281 812 719 970
1033 14 28 49 84 78 125 29 41 67 107 84 145 18 39 49 99 71 135 21 36 53 103
70 150 17 46 54 123 81 171 164 284 63 417 -173 228 -40 -32 -102 -71 -138
-86 -36 -15 -110 -51 -165 -79 -113 -58 -164 -76 -285 -99 -47 -10 -139 -34
-205 -55 -274 -86 -856 -88 -1143 -3 -166 49 -188 53 -325 73 -161 23 -231 40
-336 81 -42 17 -128 46 -191 64 -64 18 -156 53 -205 78 -50 24 -137 59 -195
77 -58 18 -145 53 -195 78 -49 24 -128 58 -174 73 -47 16 -112 46 -145 68 -34
21 -89 53 -123 71 -121 63 -378 308 -427 407 -136 274 -141 293 -141 568 0
272 29 396 147 629 62 123 265 329 396 402 37 21 93 55 125 75 39 25 83 43
135 54 42 10 141 33 218 52 411 100 738 105 1189 18 99 -20 241 -45 315 -56
79 -12 176 -35 235 -55 55 -19 160 -55 234 -79 87 -29 162 -61 215 -93 44 -27
105 -61 135 -76 58 -29 58 -29 172 -120 110 -88 364 -342 417 -416 26 -36 61
-84 78 -106 17 -23 46 -77 64 -120 17 -44 50 -107 72 -141 22 -34 53 -97 69
-140 64 -175 146 -162 259 42 19 33 53 86 77 117 24 32 62 89 84 128 22 40 66
107 97 150 132 183 169 237 201 295 19 33 53 85 76 115 23 30 52 73 65 95 13
22 49 76 81 120 31 44 68 103 82 130 14 28 48 82 77 120 29 39 59 84 67 100 9
17 42 69 74 117 169 250 193 374 125 638 -19 74 -42 176 -51 225 -10 55 -36
136 -67 209 -35 84 -59 160 -78 255 -19 92 -42 170 -73 241 -29 67 -55 151
-72 230 -19 91 -39 154 -76 233 -27 59 -62 156 -78 215 -15 59 -49 150 -74
203 -25 53 -57 140 -72 194 -53 199 -96 229 -252 176 -48 -17 -142 -42 -209
-56 -66 -14 -154 -36 -195 -50 -123 -42 -216 -63 -379 -85 -162 -21 -184 -26
-370 -83 -126 -38 -216 -52 -450 -67 -202 -14 -279 -23 -555 -70 -428 -72
-1109 -104 -1508 -71 -393 33 -561 143 -747 491 -25 47 -62 108 -82 135 -20
28 -47 75 -61 105 -13 30 -52 97 -85 149 -34 51 -62 99 -62 105 0 7 -27 54
-59 105 -33 51 -74 126 -91 167 -17 41 -50 105 -74 142 -24 37 -55 95 -69 130
-96 234 -305 225 -664 -31 -122 -87 -257 -190 -298 -228 -45 -41 -274 -191
-325 -213 -25 -10 -106 -47 -180 -82 -120 -56 -154 -67 -310 -99 -96 -20 -242
-50 -325 -68 -249 -53 -764 -44 -1096 18 -176 33 -336 53 -528 65 -191 12
-274 27 -433 81 -64 21 -161 46 -215 54 -220 35 -265 46 -361 91 -57 26 -147
57 -217 74 -78 19 -148 44 -200 71 -44 23 -124 56 -178 75 -53 18 -130 53
-170 78 -40 25 -105 59 -145 75 -40 17 -105 52 -145 79 -39 27 -90 60 -112 72
-22 13 -69 47 -105 75 -36 29 -91 69 -123 89 -191 121 -624 517 -741 679 -25
34 -78 107 -117 162 -223 310 -252 340 -293 299z" fill="#ffffff" stroke="#ffffff" stroke-width="2070" stroke-linejoin="round" stroke-linecap="round"/>
    <path d="M6206 18984 c-38 -37 -30 -99 78 -623 51 -248 72 -326 101 -393 21
-46 52 -130 69 -188 35 -113 52 -151 99 -219 17 -24 45 -83 64 -130 18 -46 51
-112 72 -145 21 -34 58 -95 81 -136 23 -41 59 -97 80 -125 20 -27 50 -70 65
-95 263 -426 989 -1039 1367 -1154 133 -40 182 -103 125 -160 -54 -54 -137
-57 -501 -21 -244 25 -311 36 -541 89 -223 51 -338 55 -408 13 -345 -208
-1223 -1148 -1397 -1497 -18 -36 -52 -93 -76 -126 -24 -34 -54 -84 -65 -110
-12 -27 -44 -84 -71 -126 -27 -43 -65 -114 -83 -159 -19 -45 -52 -112 -74
-148 -22 -36 -53 -111 -70 -166 -18 -59 -52 -137 -82 -190 -100 -172 -52 -294
83 -212 20 12 56 34 80 49 25 16 91 39 149 54 57 14 134 39 171 55 207 91 269
-78 118 -321 -22 -36 -52 -103 -66 -150 -14 -47 -48 -134 -76 -193 -31 -69
-59 -149 -74 -219 -24 -107 -39 -151 -102 -308 -17 -41 -40 -131 -52 -200 -14
-79 -39 -169 -67 -245 -52 -142 -66 -202 -88 -394 -9 -79 -29 -194 -46 -255
-90 -337 -96 -401 -105 -1031 -10 -783 7 -1079 76 -1323 50 -177 65 -255 85
-432 40 -353 166 -396 250 -86 15 55 47 140 72 189 24 50 54 126 65 171 32
130 68 179 133 179 73 -1 82 -39 89 -400 8 -387 17 -469 67 -613 21 -63 52
-176 68 -251 24 -109 40 -156 81 -238 28 -56 60 -125 71 -154 11 -29 39 -79
62 -112 22 -33 57 -96 78 -140 82 -177 383 -538 594 -713 44 -37 111 -94 150
-127 38 -33 106 -91 150 -130 170 -146 281 -229 450 -334 44 -27 107 -70 141
-94 34 -25 98 -64 142 -86 44 -22 108 -58 141 -80 33 -21 89 -50 125 -64 35
-15 98 -48 140 -76 42 -27 106 -59 144 -71 37 -12 105 -44 152 -70 53 -30 126
-60 193 -79 59 -17 147 -51 196 -75 49 -25 131 -57 182 -72 52 -14 148 -49
213 -76 83 -35 160 -59 255 -78 85 -17 180 -45 255 -75 66 -26 151 -53 190
-60 39 -7 111 -21 161 -30 49 -9 135 -33 191 -55 118 -44 208 -66 314 -75 200
-17 342 -39 575 -90 305 -66 881 -64 1192 5 175 39 290 57 453 70 178 15 243
29 382 84 64 25 174 59 245 75 97 22 155 42 229 79 54 27 129 59 166 71 37 12
103 44 147 71 44 27 113 61 153 75 40 14 96 40 123 57 28 17 86 52 130 77 45
25 118 73 163 106 328 239 324 236 690 589 121 118 330 362 454 531 32 44 78
106 101 137 147 201 302 437 348 533 21 44 56 108 77 142 21 34 51 96 66 138
15 43 47 109 72 149 25 39 56 109 70 156 15 47 53 142 85 211 150 323 104 573
-51 277 -39 -74 -119 -206 -205 -338 -34 -52 -70 -109 -79 -127 -9 -18 -38
-58 -65 -90 -26 -33 -68 -88 -93 -123 -144 -211 -425 -499 -812 -835 -151
-132 -443 -352 -550 -417 -39 -22 -99 -63 -135 -89 -37 -26 -95 -59 -131 -73
-36 -15 -90 -42 -120 -60 -77 -47 -126 -70 -190 -91 -30 -9 -96 -40 -147 -67
-73 -39 -119 -55 -222 -78 -72 -16 -181 -50 -243 -74 -125 -49 -188 -61 -388
-76 -74 -6 -198 -21 -275 -33 -181 -28 -615 -30 -785 -3 -58 9 -170 26 -250
37 -165 23 -222 36 -370 84 -58 19 -161 46 -230 60 -98 20 -150 37 -240 79
-63 30 -151 64 -195 76 -48 13 -118 42 -175 75 -52 30 -119 63 -149 75 -30 11
-86 43 -125 70 -39 27 -98 61 -131 76 -65 29 -257 161 -333 229 -26 23 -78 66
-117 97 -202 160 -541 543 -622 702 -14 28 -49 85 -76 126 -28 41 -68 118 -88
170 -21 52 -54 125 -73 161 -20 36 -47 110 -62 165 -14 54 -47 167 -74 249
-58 178 -76 291 -90 555 -6 107 -15 259 -20 338 -24 350 34 947 115 1187 24
72 55 176 69 232 16 69 39 130 70 186 25 46 59 116 75 155 71 171 300 457 473
591 51 39 143 109 203 156 162 127 208 143 260 90 46 -45 39 -70 -78 -285 -48
-89 -54 -114 -77 -322 -26 -247 38 -316 151 -160 60 82 124 147 199 200 36 26
94 68 129 95 35 26 91 62 125 79 33 16 93 50 132 74 39 25 116 60 170 78 55
19 134 54 176 79 47 27 116 55 174 71 54 15 145 47 203 71 103 42 196 66 311
80 30 4 111 20 180 35 215 50 647 96 795 85 261 -19 699 -128 824 -205 26 -16
92 -44 146 -62 64 -20 120 -47 159 -74 34 -24 95 -61 136 -84 41 -23 98 -59
125 -80 28 -21 75 -53 105 -71 51 -31 177 -130 383 -302 45 -37 118 -95 162
-129 99 -76 319 -291 474 -462 232 -258 375 -423 442 -511 38 -49 109 -142
159 -205 50 -63 111 -149 137 -190 26 -41 64 -98 84 -125 20 -28 51 -76 69
-108 70 -125 209 -127 400 -7 36 22 107 61 158 85 51 25 112 58 135 74 23 15
76 45 117 66 41 20 109 61 150 90 41 30 103 73 137 97 401 281 812 719 970
1033 14 28 49 84 78 125 29 41 67 107 84 145 18 39 49 99 71 135 21 36 53 103
70 150 17 46 54 123 81 171 164 284 63 417 -173 228 -40 -32 -102 -71 -138
-86 -36 -15 -110 -51 -165 -79 -113 -58 -164 -76 -285 -99 -47 -10 -139 -34
-205 -55 -274 -86 -856 -88 -1143 -3 -166 49 -188 53 -325 73 -161 23 -231 40
-336 81 -42 17 -128 46 -191 64 -64 18 -156 53 -205 78 -50 24 -137 59 -195
77 -58 18 -145 53 -195 78 -49 24 -128 58 -174 73 -47 16 -112 46 -145 68 -34
21 -89 53 -123 71 -121 63 -378 308 -427 407 -136 274 -141 293 -141 568 0
272 29 396 147 629 62 123 265 329 396 402 37 21 93 55 125 75 39 25 83 43
135 54 42 10 141 33 218 52 411 100 738 105 1189 18 99 -20 241 -45 315 -56
79 -12 176 -35 235 -55 55 -19 160 -55 234 -79 87 -29 162 -61 215 -93 44 -27
105 -61 135 -76 58 -29 58 -29 172 -120 110 -88 364 -342 417 -416 26 -36 61
-84 78 -106 17 -23 46 -77 64 -120 17 -44 50 -107 72 -141 22 -34 53 -97 69
-140 64 -175 146 -162 259 42 19 33 53 86 77 117 24 32 62 89 84 128 22 40 66
107 97 150 132 183 169 237 201 295 19 33 53 85 76 115 23 30 52 73 65 95 13
22 49 76 81 120 31 44 68 103 82 130 14 28 48 82 77 120 29 39 59 84 67 100 9
17 42 69 74 117 169 250 193 374 125 638 -19 74 -42 176 -51 225 -10 55 -36
136 -67 209 -35 84 -59 160 -78 255 -19 92 -42 170 -73 241 -29 67 -55 151
-72 230 -19 91 -39 154 -76 233 -27 59 -62 156 -78 215 -15 59 -49 150 -74
203 -25 53 -57 140 -72 194 -53 199 -96 229 -252 176 -48 -17 -142 -42 -209
-56 -66 -14 -154 -36 -195 -50 -123 -42 -216 -63 -379 -85 -162 -21 -184 -26
-370 -83 -126 -38 -216 -52 -450 -67 -202 -14 -279 -23 -555 -70 -428 -72
-1109 -104 -1508 -71 -393 33 -561 143 -747 491 -25 47 -62 108 -82 135 -20
28 -47 75 -61 105 -13 30 -52 97 -85 149 -34 51 -62 99 -62 105 0 7 -27 54
-59 105 -33 51 -74 126 -91 167 -17 41 -50 105 -74 142 -24 37 -55 95 -69 130
-96 234 -305 225 -664 -31 -122 -87 -257 -190 -298 -228 -45 -41 -274 -191
-325 -213 -25 -10 -106 -47 -180 -82 -120 -56 -154 -67 -310 -99 -96 -20 -242
-50 -325 -68 -249 -53 -764 -44 -1096 18 -176 33 -336 53 -528 65 -191 12
-274 27 -433 81 -64 21 -161 46 -215 54 -220 35 -265 46 -361 91 -57 26 -147
57 -217 74 -78 19 -148 44 -200 71 -44 23 -124 56 -178 75 -53 18 -130 53
-170 78 -40 25 -105 59 -145 75 -40 17 -105 52 -145 79 -39 27 -90 60 -112 72
-22 13 -69 47 -105 75 -36 29 -91 69 -123 89 -191 121 -624 517 -741 679 -25
34 -78 107 -117 162 -223 310 -252 340 -293 299z" fill="#000000" stroke="#000000" stroke-width="1000" stroke-linejoin="round" stroke-linecap="round"/>
    <path d="M6206 18984 c-38 -37 -30 -99 78 -623 51 -248 72 -326 101 -393 21
-46 52 -130 69 -188 35 -113 52 -151 99 -219 17 -24 45 -83 64 -130 18 -46 51
-112 72 -145 21 -34 58 -95 81 -136 23 -41 59 -97 80 -125 20 -27 50 -70 65
-95 263 -426 989 -1039 1367 -1154 133 -40 182 -103 125 -160 -54 -54 -137
-57 -501 -21 -244 25 -311 36 -541 89 -223 51 -338 55 -408 13 -345 -208
-1223 -1148 -1397 -1497 -18 -36 -52 -93 -76 -126 -24 -34 -54 -84 -65 -110
-12 -27 -44 -84 -71 -126 -27 -43 -65 -114 -83 -159 -19 -45 -52 -112 -74
-148 -22 -36 -53 -111 -70 -166 -18 -59 -52 -137 -82 -190 -100 -172 -52 -294
83 -212 20 12 56 34 80 49 25 16 91 39 149 54 57 14 134 39 171 55 207 91 269
-78 118 -321 -22 -36 -52 -103 -66 -150 -14 -47 -48 -134 -76 -193 -31 -69
-59 -149 -74 -219 -24 -107 -39 -151 -102 -308 -17 -41 -40 -131 -52 -200 -14
-79 -39 -169 -67 -245 -52 -142 -66 -202 -88 -394 -9 -79 -29 -194 -46 -255
-90 -337 -96 -401 -105 -1031 -10 -783 7 -1079 76 -1323 50 -177 65 -255 85
-432 40 -353 166 -396 250 -86 15 55 47 140 72 189 24 50 54 126 65 171 32
130 68 179 133 179 73 -1 82 -39 89 -400 8 -387 17 -469 67 -613 21 -63 52
-176 68 -251 24 -109 40 -156 81 -238 28 -56 60 -125 71 -154 11 -29 39 -79
62 -112 22 -33 57 -96 78 -140 82 -177 383 -538 594 -713 44 -37 111 -94 150
-127 38 -33 106 -91 150 -130 170 -146 281 -229 450 -334 44 -27 107 -70 141
-94 34 -25 98 -64 142 -86 44 -22 108 -58 141 -80 33 -21 89 -50 125 -64 35
-15 98 -48 140 -76 42 -27 106 -59 144 -71 37 -12 105 -44 152 -70 53 -30 126
-60 193 -79 59 -17 147 -51 196 -75 49 -25 131 -57 182 -72 52 -14 148 -49
213 -76 83 -35 160 -59 255 -78 85 -17 180 -45 255 -75 66 -26 151 -53 190
-60 39 -7 111 -21 161 -30 49 -9 135 -33 191 -55 118 -44 208 -66 314 -75 200
-17 342 -39 575 -90 305 -66 881 -64 1192 5 175 39 290 57 453 70 178 15 243
29 382 84 64 25 174 59 245 75 97 22 155 42 229 79 54 27 129 59 166 71 37 12
103 44 147 71 44 27 113 61 153 75 40 14 96 40 123 57 28 17 86 52 130 77 45
25 118 73 163 106 328 239 324 236 690 589 121 118 330 362 454 531 32 44 78
106 101 137 147 201 302 437 348 533 21 44 56 108 77 142 21 34 51 96 66 138
15 43 47 109 72 149 25 39 56 109 70 156 15 47 53 142 85 211 150 323 104 573
-51 277 -39 -74 -119 -206 -205 -338 -34 -52 -70 -109 -79 -127 -9 -18 -38
-58 -65 -90 -26 -33 -68 -88 -93 -123 -144 -211 -425 -499 -812 -835 -151
-132 -443 -352 -550 -417 -39 -22 -99 -63 -135 -89 -37 -26 -95 -59 -131 -73
-36 -15 -90 -42 -120 -60 -77 -47 -126 -70 -190 -91 -30 -9 -96 -40 -147 -67
-73 -39 -119 -55 -222 -78 -72 -16 -181 -50 -243 -74 -125 -49 -188 -61 -388
-76 -74 -6 -198 -21 -275 -33 -181 -28 -615 -30 -785 -3 -58 9 -170 26 -250
37 -165 23 -222 36 -370 84 -58 19 -161 46 -230 60 -98 20 -150 37 -240 79
-63 30 -151 64 -195 76 -48 13 -118 42 -175 75 -52 30 -119 63 -149 75 -30 11
-86 43 -125 70 -39 27 -98 61 -131 76 -65 29 -257 161 -333 229 -26 23 -78 66
-117 97 -202 160 -541 543 -622 702 -14 28 -49 85 -76 126 -28 41 -68 118 -88
170 -21 52 -54 125 -73 161 -20 36 -47 110 -62 165 -14 54 -47 167 -74 249
-58 178 -76 291 -90 555 -6 107 -15 259 -20 338 -24 350 34 947 115 1187 24
72 55 176 69 232 16 69 39 130 70 186 25 46 59 116 75 155 71 171 300 457 473
591 51 39 143 109 203 156 162 127 208 143 260 90 46 -45 39 -70 -78 -285 -48
-89 -54 -114 -77 -322 -26 -247 38 -316 151 -160 60 82 124 147 199 200 36 26
94 68 129 95 35 26 91 62 125 79 33 16 93 50 132 74 39 25 116 60 170 78 55
19 134 54 176 79 47 27 116 55 174 71 54 15 145 47 203 71 103 42 196 66 311
80 30 4 111 20 180 35 215 50 647 96 795 85 261 -19 699 -128 824 -205 26 -16
92 -44 146 -62 64 -20 120 -47 159 -74 34 -24 95 -61 136 -84 41 -23 98 -59
125 -80 28 -21 75 -53 105 -71 51 -31 177 -130 383 -302 45 -37 118 -95 162
-129 99 -76 319 -291 474 -462 232 -258 375 -423 442 -511 38 -49 109 -142
159 -205 50 -63 111 -149 137 -190 26 -41 64 -98 84 -125 20 -28 51 -76 69
-108 70 -125 209 -127 400 -7 36 22 107 61 158 85 51 25 112 58 135 74 23 15
76 45 117 66 41 20 109 61 150 90 41 30 103 73 137 97 401 281 812 719 970
1033 14 28 49 84 78 125 29 41 67 107 84 145 18 39 49 99 71 135 21 36 53 103
70 150 17 46 54 123 81 171 164 284 63 417 -173 228 -40 -32 -102 -71 -138
-86 -36 -15 -110 -51 -165 -79 -113 -58 -164 -76 -285 -99 -47 -10 -139 -34
-205 -55 -274 -86 -856 -88 -1143 -3 -166 49 -188 53 -325 73 -161 23 -231 40
-336 81 -42 17 -128 46 -191 64 -64 18 -156 53 -205 78 -50 24 -137 59 -195
77 -58 18 -145 53 -195 78 -49 24 -128 58 -174 73 -47 16 -112 46 -145 68 -34
21 -89 53 -123 71 -121 63 -378 308 -427 407 -136 274 -141 293 -141 568 0
272 29 396 147 629 62 123 265 329 396 402 37 21 93 55 125 75 39 25 83 43
135 54 42 10 141 33 218 52 411 100 738 105 1189 18 99 -20 241 -45 315 -56
79 -12 176 -35 235 -55 55 -19 160 -55 234 -79 87 -29 162 -61 215 -93 44 -27
105 -61 135 -76 58 -29 58 -29 172 -120 110 -88 364 -342 417 -416 26 -36 61
-84 78 -106 17 -23 46 -77 64 -120 17 -44 50 -107 72 -141 22 -34 53 -97 69
-140 64 -175 146 -162 259 42 19 33 53 86 77 117 24 32 62 89 84 128 22 40 66
107 97 150 132 183 169 237 201 295 19 33 53 85 76 115 23 30 52 73 65 95 13
22 49 76 81 120 31 44 68 103 82 130 14 28 48 82 77 120 29 39 59 84 67 100 9
17 42 69 74 117 169 250 193 374 125 638 -19 74 -42 176 -51 225 -10 55 -36
136 -67 209 -35 84 -59 160 -78 255 -19 92 -42 170 -73 241 -29 67 -55 151
-72 230 -19 91 -39 154 -76 233 -27 59 -62 156 -78 215 -15 59 -49 150 -74
203 -25 53 -57 140 -72 194 -53 199 -96 229 -252 176 -48 -17 -142 -42 -209
-56 -66 -14 -154 -36 -195 -50 -123 -42 -216 -63 -379 -85 -162 -21 -184 -26
-370 -83 -126 -38 -216 -52 -450 -67 -202 -14 -279 -23 -555 -70 -428 -72
-1109 -104 -1508 -71 -393 33 -561 143 -747 491 -25 47 -62 108 -82 135 -20
28 -47 75 -61 105 -13 30 -52 97 -85 149 -34 51 -62 99 -62 105 0 7 -27 54
-59 105 -33 51 -74 126 -91 167 -17 41 -50 105 -74 142 -24 37 -55 95 -69 130
-96 234 -305 225 -664 -31 -122 -87 -257 -190 -298 -228 -45 -41 -274 -191
-325 -213 -25 -10 -106 -47 -180 -82 -120 -56 -154 -67 -310 -99 -96 -20 -242
-50 -325 -68 -249 -53 -764 -44 -1096 18 -176 33 -336 53 -528 65 -191 12
-274 27 -433 81 -64 21 -161 46 -215 54 -220 35 -265 46 -361 91 -57 26 -147
57 -217 74 -78 19 -148 44 -200 71 -44 23 -124 56 -178 75 -53 18 -130 53
-170 78 -40 25 -105 59 -145 75 -40 17 -105 52 -145 79 -39 27 -90 60 -112 72
-22 13 -69 47 -105 75 -36 29 -91 69 -123 89 -191 121 -624 517 -741 679 -25
34 -78 107 -117 162 -223 310 -252 340 -293 299z" fill="#B6B7B6" stroke="none"/>
  </g>
</svg>
