<?xml version="1.0" encoding="UTF-8" standalone="no"?>
<!DOCTYPE svg PUBLIC "-//W3C//DTD SVG 1.1//EN" "http://www.w3.org/Graphics/SVG/1.1/DTD/svg11.dtd">
<svg width="100%" height="100%" viewBox="0 0 57 29" version="1.1" xmlns="http://www.w3.org/2000/svg" xmlns:xlink="http://www.w3.org/1999/xlink" xml:space="preserve" xmlns:serif="http://www.serif.com/" style="fill-rule:evenodd;clip-rule:evenodd;stroke-linejoin:round;stroke-miterlimit:2;">
    <g transform="matrix(1,0,0,1,-605,-12)">
        <g id="tco_white" transform="matrix(1,0,0,1,350.983,-143.625)">
            <path d="M290.273,163.173C290.507,162.374 290.836,161.616 291.26,160.899C292.21,159.29 293.494,158.035 295.112,157.134C296.731,156.232 298.509,155.782 300.448,155.782C302.386,155.782 304.16,156.232 305.768,157.134C307.377,158.035 308.652,159.29 309.592,160.899C310.532,162.508 311.002,164.32 311.002,166.336C311.002,168.352 310.532,170.164 309.592,171.773C308.652,173.382 307.372,174.642 305.754,175.553C304.135,176.464 302.367,176.919 300.448,176.919C298.509,176.919 296.731,176.464 295.112,175.553C293.494,174.642 292.21,173.382 291.26,171.773C290.628,170.702 290.206,169.541 289.995,168.29L287.364,168.29C287.823,169.197 288.15,170.196 288.344,171.285L281.541,171.285C281.231,170.607 280.79,170.078 280.218,169.7C279.646,169.322 278.992,169.133 278.255,169.133C277.17,169.133 276.312,169.541 275.682,170.355C275.052,171.169 274.737,172.264 274.737,173.64C274.737,175.016 275.052,176.111 275.682,176.926C276.312,177.74 277.17,178.147 278.255,178.147C278.992,178.147 279.646,177.958 280.218,177.58C280.79,177.202 281.231,176.674 281.541,175.995L288.344,175.995C288.054,177.623 287.467,179.048 286.585,180.269C285.703,181.49 284.56,182.435 283.155,183.104C281.749,183.773 280.155,184.107 278.372,184.107C276.298,184.107 274.495,183.666 272.964,182.784C271.432,181.902 270.255,180.667 269.431,179.077C268.607,177.488 268.195,175.675 268.195,173.64C268.195,171.642 268.592,169.859 269.387,168.29L265.541,168.29L265.541,180.46L259.087,180.46L259.087,168.29L254.17,168.29L254.17,163.173L290.273,163.173ZM300.448,161.742C299.149,161.742 298.151,162.154 297.453,162.978C296.755,163.801 296.406,164.921 296.406,166.336C296.406,167.731 296.755,168.841 297.453,169.665C298.151,170.489 299.149,170.901 300.448,170.901C301.727,170.901 302.715,170.489 303.413,169.665C304.111,168.841 304.46,167.731 304.46,166.336C304.46,164.921 304.111,163.801 303.413,162.978C302.715,162.154 301.727,161.742 300.448,161.742Z" style="fill:white;fill-rule:nonzero;"/>
        </g>
    </g>
</svg>
