<?xml version="1.0" standalone="no"?>
<!DOCTYPE svg PUBLIC "-//W3C//DTD SVG 20010904//EN"
 "http://www.w3.org/TR/2001/REC-SVG-20010904/DTD/svg10.dtd">
<svg version="1.0" xmlns="http://www.w3.org/2000/svg"
 width="600.000000pt" height="600.000000pt" viewBox="0 0 600.000000 600.000000"
 preserveAspectRatio="xMidYMid meet">
<metadata>
Created by potrace 1.11, written by Peter Selinger 2001-2013
</metadata>
<g transform="translate(0.000000,600.000000) scale(0.100000,-0.100000)"
fill="#000000" stroke="none">
<path d="M4768 4505 c-2 -2 -24 -6 -48 -9 -246 -26 -516 -169 -677 -358 -61
-72 -66 -79 -109 -148 -44 -71 -93 -170 -99 -202 -2 -11 -7 -28 -10 -37 -5
-17 -92 -18 -1878 -19 -1029 -1 -1886 -1 -1902 -1 l-30 -1 0 -267 0 -268 245
-2 c135 -1 252 -2 260 -3 13 0 15 -77 13 -639 l-1 -638 339 -1 c258 -1 339 2
340 11 0 7 0 294 1 640 l0 627 97 1 c53 0 142 1 198 2 57 1 103 0 103 -3 0 -3
-14 -40 -30 -82 -31 -79 -64 -207 -76 -288 -15 -110 -10 -339 9 -440 8 -42 28
-124 35 -140 3 -8 6 -17 7 -20 32 -120 137 -292 240 -396 201 -202 448 -294
779 -292 222 2 372 38 546 132 211 113 394 342 456 566 20 76 34 143 30 148
-4 4 -608 6 -697 3 -9 -1 -24 -16 -33 -35 -35 -73 -134 -152 -221 -175 -227
-60 -412 67 -459 314 -15 80 -15 206 -1 295 19 114 111 247 200 290 47 23 136
40 175 34 77 -12 97 -17 145 -39 60 -26 136 -97 161 -150 9 -19 21 -35 28 -36
15 -1 678 -1 694 0 6 1 12 7 12 15 0 25 -51 190 -75 244 -28 60 -40 53 100 53
168 0 150 7 165 -58 13 -62 57 -186 86 -243 39 -78 128 -202 193 -269 145
-149 365 -273 543 -307 13 -2 34 -6 48 -9 14 -3 57 -8 95 -12 357 -34 682 79
917 319 156 158 252 343 299 573 14 70 19 298 7 370 -4 27 -10 66 -13 85 -7
42 -24 107 -36 135 -4 11 -20 49 -35 85 -32 80 -135 237 -200 307 -55 59 -164
147 -209 170 -16 9 -32 19 -35 22 -7 9 -113 59 -175 83 -111 42 -253 65 -401
66 -62 1 -113 -1 -116 -3z m295 -653 c105 -47 188 -146 222 -263 19 -67 26
-246 13 -325 -27 -158 -135 -287 -275 -325 -94 -26 -233 -25 -285 2 -10 6 -18
7 -18 5 0 -12 -107 59 -133 88 -32 35 -90 126 -81 126 4 0 2 6 -3 13 -30 36
-45 188 -32 317 19 186 112 317 261 370 76 27 262 22 331 -8z"/>
</g>
</svg>
