<?xml version="1.0" standalone="no"?>
<!DOCTYPE svg PUBLIC "-//W3C//DTD SVG 20010904//EN"
 "http://www.w3.org/TR/2001/REC-SVG-20010904/DTD/svg10.dtd">
<svg version="1.0" xmlns="http://www.w3.org/2000/svg"
 width="100.000000pt" height="100.000000pt" viewBox="0 0 100.000000 100.000000"
 preserveAspectRatio="xMidYMid meet">
<metadata>
Created by potrace 1.11, written by Peter Selinger 2001-2013
</metadata>
<g transform="translate(0.000000,100.000000) scale(0.100000,-0.100000)"
fill="#000000" stroke="none">
<path d="M405 989 c-63 -14 -94 -30 -100 -50 -5 -16 -13 -18 -38 -14 -28 5
-39 -1 -94 -50 -34 -31 -65 -65 -69 -77 -4 -12 -24 -38 -44 -58 -36 -34 -56
-80 -53 -125 1 -11 4 -67 6 -125 4 -117 25 -185 59 -193 11 -3 17 -10 14 -16
-4 -6 0 -23 8 -38 16 -32 105 -123 121 -123 14 0 51 -41 59 -66 13 -42 99 -63
153 -37 28 13 38 14 57 4 21 -12 90 -9 132 5 54 17 74 28 74 38 1 26 17 38 37
28 15 -8 27 -7 49 7 33 20 114 100 114 112 0 5 22 33 50 64 l49 55 -4 129 c-5
158 -18 217 -54 240 -20 12 -25 23 -23 43 6 50 -87 156 -130 150 -9 -2 -19 6
-23 18 -4 11 -23 29 -44 39 -45 24 -151 52 -151 41 0 -15 -33 -20 -49 -7 -19
16 -52 18 -106 6z"/>
</g>
</svg>
